FFmpeg version SVN-r25716, Copyright (c) 2000-2010 the FFmpeg developers  built on Nov 10 2010 12:23:18 with gcc 4.1.2 20080704 (Red Hat 4.1.2-48)  configuration: --enable-libmp3lame --enable-shared --disable-mmx --arch=x86_64  libavutil     50.33. 0 / 50.33. 0  libavcore      0.12. 1 /  0.12. 1  libavcodec    52.94. 4 / 52.94. 4  libavformat   52.84. 0 / 52.84. 0  libavdevice   52. 2. 2 / 52. 2. 2  libavfilter    1.59. 0 /  1.59. 0  libswscale     0.12. 0 /  0.12. 0Input #0, mov,mp4,m4a,3gp,3g2,mj2, from '/RAID10/data/converted_video_files/26302.mov':  Metadata:    major_brand     : qt      minor_version   : 537199360    compatible_brands: qt    Duration: 00:00:38.79, start: 0.000000, bitrate: 2061 kb/s    Stream #0.0(eng): Video: h264, yuv420p, 512x512, 2060 kb/s, 24 fps, 24 tbr, 24 tbn, 48 tbc[buffer @ 0x1b528bd0] w:512 h:512 pixfmt:yuv420pOutput #0, flv, to '/RAID10/data/converted_video_files/26302.flv':  Metadata:    encoder         : Lavf52.84.0    Stream #0.0(eng): Video: flv, yuv420p, 512x512, q=2-31, 600 kb/s, 1k tbn, 24 tbcStream mapping:  Stream #0.0 -> #0.0Press [q] to stop encodingframe=   33 fps=  0 q=31.0 size=     558kB time=1.38 bitrate=3325.3kbits/s    frame=   67 fps= 55 q=31.0 size=     646kB time=2.79 bitrate=1896.4kbits/s    frame=   96 fps= 61 q=31.0 size=     679kB time=4.00 bitrate=1390.8kbits/s    frame=  141 fps= 68 q=31.0 size=     759kB time=5.88 bitrate=1058.0kbits/s    frame=  180 fps= 69 q=30.8 size=     844kB time=7.50 bitrate= 921.7kbits/s    frame=  216 fps= 70 q=23.9 size=     928kB time=9.00 bitrate= 844.5kbits/s    frame=  246 fps= 68 q=24.8 size=    1011kB time=10.25 bitrate= 808.3kbits/s    frame=  290 fps= 70 q=29.0 size=    1149kB time=12.08 bitrate= 778.9kbits/s    frame=  315 fps= 68 q=26.2 size=    1221kB time=13.12 bitrate= 762.2kbits/s    frame=  358 fps= 70 q=25.6 size=    1341kB time=14.92 bitrate= 736.6kbits/s    frame=  402 fps= 72 q=25.8 size=    1453kB time=16.75 bitrate= 710.8kbits/s    frame=  460 fps= 75 q=23.5 size=    1616kB time=19.17 bitrate= 690.5kbits/s    frame=  515 fps= 78 q=21.7 size=    1782kB time=21.46 bitrate= 680.2kbits/s    frame=  544 fps= 76 q=24.0 size=    1865kB time=22.67 bitrate= 673.9kbits/s    frame=  584 fps= 76 q=22.6 size=    1975kB time=24.33 bitrate= 664.9kbits/s    frame=  637 fps= 78 q=19.3 size=    2143kB time=26.54 bitrate= 661.3kbits/s    frame=  693 fps= 80 q=18.0 size=    2317kB time=28.88 bitrate= 657.4kbits/s    frame=  729 fps= 79 q=18.8 size=    2420kB time=30.38 bitrate= 652.7kbits/s    frame=  757 fps= 78 q=20.9 size=    2503kB time=31.54 bitrate= 650.2kbits/s    frame=  787 fps= 77 q=20.5 size=    2588kB time=32.79 bitrate= 646.6kbits/s    frame=  820 fps= 77 q=22.3 size=    2695kB time=34.17 bitrate= 646.1kbits/s    frame=  869 fps= 78 q=23.0 size=    2842kB time=36.21 bitrate= 643.1kbits/s    frame=  906 fps= 78 q=21.6 size=    2956kB time=37.75 bitrate= 641.5kbits/s    frame=  931 fps= 78 q=20.4 Lsize=    3032kB time=38.79 bitrate= 640.2kbits/s    video:3017kB audio:0kB global headers:0kB muxing overhead 0.488980%